<svg width="52" height="52" viewBox="0 0 52 52" fill="none" xmlns="http://www.w3.org/2000/svg">
<g id="book 1">
<g id="Group">
<path id="Vector" d="M6.16182 2.94757L5.91071 3.18864V26V48.8114L6.16182 49.0525C6.36271 49.2634 6.50334 49.3036 6.96539 49.3036H7.51785V26V2.69645H6.96539C6.50334 2.69645 6.36271 2.73663 6.16182 2.94757Z" fill="#055C9D"/>
<path id="Vector_2" d="M9.125 26V49.3036H26H42.875V26V2.69645H26H9.125V26ZM26.8036 7.60828C26.8036 8.43194 26.8237 8.5123 27.0145 8.57257C27.3359 8.67301 27.9688 9.28574 28.1094 9.62725L28.2299 9.92859H33.9453H39.6607V10.7322V11.5357H38.2545C37.481 11.5357 36.8482 11.5759 36.8482 11.6161C36.8482 11.6563 37.481 13.4342 38.2645 15.5536L39.6708 19.4208L39.6306 20.3951C39.5904 21.279 39.5502 21.4598 39.2288 22.1228C38.7868 23.0168 38.1942 23.5893 37.2701 24.0212C36.6574 24.3125 36.5067 24.3427 35.6328 24.3427C34.7288 24.3427 34.6384 24.3226 33.9152 23.971C33.0011 23.519 32.4286 22.9264 32.0067 22.0123C31.7455 21.4498 31.6853 21.1987 31.6551 20.3851L31.615 19.4208L33.0212 15.5536C33.8047 13.4342 34.4375 11.6563 34.4375 11.6161C34.4375 11.5759 33.0413 11.5357 31.3337 11.5357C28.26 11.5357 28.2199 11.5357 28.1596 11.7467C28.0592 12.0681 27.4464 12.7009 27.1049 12.8415L26.8036 12.9621V18.2757V23.5893H28.1596C29.4754 23.5893 29.5357 23.5993 29.7667 23.8404C30.0078 24.0714 30.0179 24.1317 30.0179 25.4476V26.8036H30.5703C31.0324 26.8036 31.173 26.8438 31.3739 27.0547C31.625 27.2958 31.625 27.3159 31.625 29.2143C31.625 31.1127 31.625 31.1328 31.3739 31.3739L31.1328 31.625H26H20.8672L20.6261 31.3739C20.375 31.1328 20.375 31.1127 20.375 29.2143C20.375 27.3159 20.375 27.2958 20.6261 27.0547C20.827 26.8438 20.9676 26.8036 21.4297 26.8036H21.9821V25.4476C21.9821 24.1317 21.9922 24.0714 22.2333 23.8404C22.4643 23.5993 22.5246 23.5893 23.8404 23.5893H25.1964V18.2757V12.9621L24.8951 12.8415C24.5536 12.7009 23.9408 12.0681 23.8404 11.7467C23.7801 11.5357 23.74 11.5357 20.6663 11.5357C18.9587 11.5357 17.5625 11.5759 17.5625 11.6161C17.5625 11.6563 18.1953 13.4342 18.9788 15.5536L20.385 19.4208L20.3449 20.3851C20.3147 21.1987 20.2545 21.4498 19.9933 22.0123C19.5714 22.9264 18.9989 23.519 18.0848 23.971C17.3616 24.3226 17.2712 24.3427 16.3571 24.3427C15.4431 24.3427 15.3527 24.3226 14.6295 23.971C13.7154 23.519 13.1429 22.9264 12.721 22.0123C12.4598 21.4498 12.3996 21.1987 12.3694 20.3851L12.3292 19.4208L13.7355 15.5536C14.519 13.4342 15.1518 11.6563 15.1518 11.6161C15.1518 11.5759 14.519 11.5357 13.7455 11.5357H12.3393V10.7322V9.92859H18.0547H23.7701L23.8906 9.62725C24.0312 9.28574 24.6641 8.67301 24.9855 8.57257C25.1763 8.5123 25.1964 8.43194 25.1964 7.60828V6.71431H26H26.8036V7.60828ZM39.4096 34.2868L39.6607 34.5279V39.6607V44.7935L39.4096 45.0346L39.1685 45.2857H26H12.8315L12.5904 45.0346L12.3393 44.7935V39.6607V34.5279L12.5904 34.2868L12.8315 34.0357H26H39.1685L39.4096 34.2868Z" fill="#055C9D"/>
<path id="Vector_3" d="M25.4475 10.1797C24.9453 10.6719 25.2969 11.5358 26 11.5358C26.1908 11.5358 26.4018 11.4454 26.5524 11.2847C26.7131 11.134 26.8035 10.923 26.8035 10.7322C26.8035 10.5413 26.7131 10.3304 26.5524 10.1797C26.4018 10.019 26.1908 9.92862 26 9.92862C25.8091 9.92862 25.5982 10.019 25.4475 10.1797Z" fill="#055C9D"/>
<path id="Vector_4" d="M15.3225 15.9252C14.7902 17.4118 14.3482 18.6473 14.3482 18.6875C14.3482 18.7377 15.2522 18.7678 16.3571 18.7678C17.462 18.7678 18.3661 18.7377 18.3661 18.6875C18.3661 18.5468 16.4074 13.2433 16.3571 13.2433C16.327 13.2433 15.8649 14.4486 15.3225 15.9252Z" fill="#055C9D"/>
<path id="Vector_5" d="M34.6082 15.9252C34.0759 17.4118 33.6339 18.6473 33.6339 18.6875C33.6339 18.7377 34.5379 18.7678 35.6428 18.7678C36.7478 18.7678 37.6518 18.7377 37.6518 18.6875C37.6518 18.5468 35.6931 13.2433 35.6428 13.2433C35.6127 13.2433 35.1507 14.4486 34.6082 15.9252Z" fill="#055C9D"/>
<path id="Vector_6" d="M13.9464 20.5357C13.9464 21.0078 14.2277 21.5602 14.6998 22.0323C15.433 22.7756 16.2165 22.9565 17.1908 22.625C17.7634 22.4341 18.4765 21.6908 18.6473 21.0982C18.8783 20.3248 19.0491 20.375 16.3571 20.375C14.1975 20.375 13.9464 20.3951 13.9464 20.5357Z" fill="#055C9D"/>
<path id="Vector_7" d="M33.2321 20.5357C33.2321 21.0078 33.5134 21.5602 33.9855 22.0323C34.7188 22.7756 35.5022 22.9565 36.4766 22.625C37.0491 22.4341 37.7623 21.6908 37.933 21.0982C38.1641 20.3248 38.3348 20.375 35.6429 20.375C33.4833 20.375 33.2321 20.3951 33.2321 20.5357Z" fill="#055C9D"/>
<path id="Vector_8" d="M23.5893 26V26.8036H26H28.4107V26V25.1964H26H23.5893V26Z" fill="#055C9D"/>
<path id="Vector_9" d="M21.9821 29.2143V30.0178H26H30.0179V29.2143V28.4107H26H21.9821V29.2143Z" fill="#055C9D"/>
<path id="Vector_10" d="M13.9464 39.6607V43.6786H26H38.0536V39.6607V35.6429H26H13.9464V39.6607ZM18.7678 38.0536V38.8572H17.1607H15.5536V38.0536V37.25H17.1607H18.7678V38.0536ZM36.4464 38.0536V38.8572H28.4107H20.375V38.0536V37.25H28.4107H36.4464V38.0536ZM36.4464 41.2679V42.0714H26H15.5536V41.2679V40.4643H26H36.4464V41.2679Z" fill="#055C9D"/>
</g>
</g>
</svg>
