<svg width="47" height="48" viewBox="0 0 47 48" fill="none" xmlns="http://www.w3.org/2000/svg">
<g id="court 1">
<g clip-path="url(#clip0_1_94)">
<g id="Group">
<path id="Vector" d="M11.9336 5.71875C5.74648 8.87812 0.615038 11.4937 0.532421 11.5406C0.302929 11.6625 -9.53674e-07 12.3094 -9.53674e-07 12.6562C-9.53674e-07 13.125 0.321288 13.6594 0.734374 13.875C1.09238 14.0625 1.2209 14.0625 23.5 14.0625C45.7791 14.0625 45.9076 14.0625 46.2656 13.875C46.6787 13.6594 47 13.1156 47 12.6375C47 12.4687 46.899 12.1594 46.7889 11.9531C46.5869 11.5875 46.284 11.4281 35.2959 5.82187C26.7588 1.47187 23.9039 0.0562496 23.5918 0.0281248C23.1879 -0.0187502 22.7197 0.215625 11.9336 5.71875ZM24.1426 6.28125C24.5557 6.49687 24.877 7.03125 24.877 7.5C24.877 8.2125 24.1977 8.90625 23.4908 8.90625C23.0686 8.90625 22.4994 8.54062 22.2975 8.1375C21.9578 7.4625 22.1689 6.72187 22.8207 6.31875C23.2613 6.04688 23.6652 6.0375 24.1426 6.28125Z" fill="#055C9D"/>
<path id="Vector_2" d="M2.8457 17.7187C2.8457 18.7687 3.0293 19.2094 3.58008 19.5C3.92891 19.6781 4.1125 19.6875 8.8125 19.6875C13.5125 19.6875 13.6961 19.6781 14.0449 19.5C14.5957 19.2094 14.7793 18.7687 14.7793 17.7187V16.875H8.8125H2.8457V17.7187Z" fill="#055C9D"/>
<path id="Vector_3" d="M17.5332 17.7187C17.5332 18.7687 17.7168 19.2094 18.2676 19.5C18.6164 19.6781 18.8 19.6875 23.5 19.6875C28.2 19.6875 28.3836 19.6781 28.7324 19.5C29.2832 19.2094 29.4668 18.7687 29.4668 17.7187V16.875H23.5H17.5332V17.7187Z" fill="#055C9D"/>
<path id="Vector_4" d="M32.2207 17.7187C32.2207 18.7687 32.4043 19.2094 32.9551 19.5C33.3039 19.6781 33.4875 19.6875 38.1875 19.6875C42.8875 19.6875 43.0711 19.6781 43.4199 19.5C43.9707 19.2094 44.1543 18.7687 44.1543 17.7187V16.875H38.1875H32.2207V17.7187Z" fill="#055C9D"/>
<path id="Vector_5" d="M5.59961 28.2188V33.9375H8.8125H12.0254V28.2188V22.5H8.8125H5.59961V28.2188Z" fill="#055C9D"/>
<path id="Vector_6" d="M20.2871 28.2188V33.9375H23.5H26.7129V28.2188V22.5H23.5H20.2871V28.2188Z" fill="#055C9D"/>
<path id="Vector_7" d="M34.9746 28.2188V33.9375H38.1875H41.4004V28.2188V22.5H38.1875H34.9746V28.2188Z" fill="#055C9D"/>
<path id="Vector_8" d="M3.56172 36.9469C3.0293 37.2281 2.8457 37.6875 2.8457 38.7187V39.5625H8.8125H14.7793V38.7187C14.7793 37.6687 14.5957 37.2281 14.0449 36.9375C13.6961 36.7594 13.5217 36.75 8.79414 36.75C4.10332 36.7594 3.88301 36.7687 3.56172 36.9469Z" fill="#055C9D"/>
<path id="Vector_9" d="M18.2492 36.9469C17.7168 37.2281 17.5332 37.6875 17.5332 38.7187V39.5625H23.5H29.4668V38.7187C29.4668 37.6687 29.2832 37.2281 28.7324 36.9375C28.3836 36.7594 28.2092 36.75 23.4816 36.75C18.7908 36.7594 18.5705 36.7687 18.2492 36.9469Z" fill="#055C9D"/>
<path id="Vector_10" d="M32.9367 36.9469C32.4043 37.2281 32.2207 37.6875 32.2207 38.7187V39.5625H38.1875H44.1543V38.7187C44.1543 37.6687 43.9707 37.2281 43.4199 36.9375C43.0711 36.7594 42.8967 36.75 38.1691 36.75C33.4783 36.7594 33.258 36.7687 32.9367 36.9469Z" fill="#055C9D"/>
<path id="Vector_11" d="M0.716015 42.5719C0.0917959 42.9 -9.53674e-07 43.2375 -9.53674e-07 45.1875C-9.53674e-07 47.1469 0.0734365 47.4281 0.716015 47.7937L1.0832 48H23.4908C45.7791 48 45.9076 48 46.2656 47.8125C46.9082 47.475 47 47.1562 47 45.1875C47 43.2188 46.9082 42.9 46.2656 42.5625C45.9076 42.375 45.7791 42.375 23.4816 42.375C1.33105 42.3844 1.05566 42.3844 0.716015 42.5719Z" fill="#055C9D"/>
</g>
</g>
</g>
<defs>
<clipPath id="clip0_1_94">
<rect width="47" height="48" rx="6" fill="white"/>
</clipPath>
</defs>
</svg>
