<svg width="51" height="51" viewBox="0 0 51 51" fill="none" xmlns="http://www.w3.org/2000/svg">
<g id="mace 1" clip-path="url(#clip0_1_108)">
<g id="Group">
<path id="Vector" d="M32.4574 0.708549C30.7142 1.26678 29.8719 3.2059 30.6848 4.79245C30.9394 5.28213 39.4794 16.6622 40.0376 17.2498C40.919 18.1704 42.2999 18.425 43.4164 17.857C44.0334 17.5436 44.4349 17.1421 44.7679 16.5055C45.0813 15.9081 45.0911 14.6154 44.7679 13.9886C44.4055 13.2443 35.5914 1.63894 35.1017 1.2374C34.3574 0.630201 33.3291 0.434332 32.4574 0.708549Z" fill="#055C9D"/>
<path id="Vector_2" d="M27.2375 6.21253C25.0046 6.69241 22.517 7.89702 20.4995 9.49336C19.0207 10.6686 17.2285 12.8232 16.445 14.3901L16.161 14.9484L21.283 21.7353C26.1406 28.1696 26.4246 28.532 26.6891 28.5026C27.7957 28.3949 30.0286 27.582 31.4291 26.7789C34.1419 25.2316 36.6882 22.6657 37.8831 20.2662L38.1573 19.7178L33.1724 13.1072C30.4302 9.47377 28.1091 6.4084 28.021 6.29088C27.8643 6.09501 27.8251 6.08521 27.2375 6.21253Z" fill="#055C9D"/>
<path id="Vector_3" d="M11.2055 16.6622C10.3535 17.005 9.76585 17.573 9.45246 18.3761C9.15865 19.1498 9.25659 20.276 9.67771 20.942C10.2653 21.8626 18.6192 32.8411 19.0403 33.2427C19.7063 33.889 20.3135 34.1045 21.2439 34.0457C22.8108 33.9282 23.9077 32.7236 23.9175 31.1077C23.9175 30.5984 23.8587 30.3438 23.6629 29.9325C23.4474 29.5211 14.8193 17.955 14.2219 17.2988C14.1338 17.2009 13.8008 16.9952 13.4776 16.8287C12.9781 16.5839 12.7823 16.5349 12.1946 16.5447C11.8127 16.5447 11.372 16.6035 11.2055 16.6622Z" fill="#055C9D"/>
<path id="Vector_4" d="M36.4532 26.7104C35.5718 27.5526 34.3966 28.4438 33.3682 29.0314C32.9961 29.2371 32.7023 29.4428 32.7023 29.4819C32.7023 29.5309 33.1136 30.1185 33.6229 30.7845L34.5435 32.0087L36.8547 30.2654C38.1181 29.3154 39.166 28.5026 39.166 28.4536C39.166 28.3655 37.3738 25.9465 37.3052 25.9465C37.2758 25.9465 36.8939 26.2892 36.4532 26.7104Z" fill="#055C9D"/>
<path id="Vector_5" d="M38.6567 32.5767C37.3836 33.5266 36.3455 34.3395 36.3553 34.3787C36.3944 34.5452 44.9344 45.8077 45.3653 46.268C45.9725 46.9242 46.6091 47.2082 47.4807 47.2082C48.3621 47.218 49.0183 46.9242 49.6353 46.2582C50.4775 45.3278 50.644 44.1526 50.0956 43.0362C49.8997 42.6542 41.4283 31.2937 41.0562 30.9216C41.0072 30.8726 39.9299 31.6169 38.6567 32.5767Z" fill="#055C9D"/>
<path id="Vector_6" d="M6.55356 38.8739C5.01598 39.1775 3.6155 40.6074 3.3217 42.1841C3.27273 42.4681 3.22376 43.1537 3.22376 43.7021V44.7011L2.65574 44.8186C1.59804 45.034 0.726414 45.8273 0.432608 46.8361C0.344467 47.1397 0.285706 47.7469 0.285706 48.4324C0.285706 49.7741 0.442402 50.205 1.06919 50.5184C1.45114 50.7143 1.61763 50.7143 15.0739 50.7143C28.5302 50.7143 28.6967 50.7143 29.0787 50.5184C29.7055 50.205 29.8622 49.7741 29.8622 48.4324C29.8622 47.7469 29.8034 47.1397 29.7153 46.8361C29.4214 45.8371 28.5498 45.034 27.5117 44.8186L26.9437 44.7109L26.9045 43.3789C26.8653 42.331 26.8066 41.9295 26.6401 41.5084C26.2288 40.4409 25.2788 39.4811 24.1819 39.0306L23.6433 38.8152L15.3188 38.7956C10.7452 38.7956 6.7984 38.825 6.55356 38.8739Z" fill="#055C9D"/>
</g>
</g>
<defs>
<clipPath id="clip0_1_108">
<rect width="50.1429" height="50.1429" fill="white" transform="translate(0.285706 0.571411)"/>
</clipPath>
</defs>
</svg>
